<mxfile host="app.diagrams.net" modified="2023-11-08T10:36:38.035Z" agent="Mozilla/5.0 (X11; Ubuntu; Linux x86_64; rv:109.0) Gecko/20100101 Firefox/119.0" etag="ddfsTRZwJyqZpKS0ZtGj" version="21.2.1" type="device">
  <diagram name="Page-1" id="c37626ed-c26b-45fb-9056-f9ebc6bb27b6">
    <mxGraphModel dx="1195" dy="663" grid="1" gridSize="10" guides="1" tooltips="1" connect="1" arrows="1" fold="1" page="1" pageScale="1" pageWidth="1100" pageHeight="850" background="none" math="0" shadow="0">
      <root>
        <mxCell id="0" />
        <mxCell id="1" parent="0" />
        <mxCell id="QtWfS4Ex85n4ASmZowjN-8" value="" style="group" vertex="1" connectable="0" parent="1">
          <mxGeometry x="70" y="80" width="420" height="430" as="geometry" />
        </mxCell>
        <mxCell id="QtWfS4Ex85n4ASmZowjN-1" value="&lt;div align=&quot;justify&quot;&gt;&lt;br&gt;&lt;/div&gt;" style="rounded=1;whiteSpace=wrap;html=1;" vertex="1" parent="QtWfS4Ex85n4ASmZowjN-8">
          <mxGeometry width="410" height="270" as="geometry" />
        </mxCell>
        <mxCell id="QtWfS4Ex85n4ASmZowjN-2" value="&lt;b&gt;5.135.156.86&lt;/b&gt;&amp;nbsp; &lt;b&gt;Port : 22&lt;/b&gt;" style="text;html=1;strokeColor=none;fillColor=none;align=center;verticalAlign=middle;whiteSpace=wrap;rounded=0;" vertex="1" parent="QtWfS4Ex85n4ASmZowjN-8">
          <mxGeometry x="120" y="25.294117647058822" width="135" height="37.941176470588225" as="geometry" />
        </mxCell>
        <mxCell id="QtWfS4Ex85n4ASmZowjN-3" value="" style="shape=mxgraph.cisco.servers.software_based_server;sketch=0;html=1;pointerEvents=1;dashed=0;fillColor=#036897;strokeColor=#ffffff;strokeWidth=2;verticalLabelPosition=bottom;verticalAlign=top;align=center;outlineConnect=0;" vertex="1" parent="QtWfS4Ex85n4ASmZowjN-8">
          <mxGeometry x="45" y="18.970588235294112" width="52.215" height="50.588235294117645" as="geometry" />
        </mxCell>
        <mxCell id="QtWfS4Ex85n4ASmZowjN-23" style="edgeStyle=orthogonalEdgeStyle;rounded=0;orthogonalLoop=1;jettySize=auto;html=1;exitX=1;exitY=0.5;exitDx=0;exitDy=0;entryX=0;entryY=0.5;entryDx=0;entryDy=0;" edge="1" parent="QtWfS4Ex85n4ASmZowjN-8" source="QtWfS4Ex85n4ASmZowjN-5" target="QtWfS4Ex85n4ASmZowjN-19">
          <mxGeometry relative="1" as="geometry" />
        </mxCell>
        <mxCell id="QtWfS4Ex85n4ASmZowjN-5" value="&lt;div&gt;kafka broker Container&lt;/div&gt;&lt;div&gt;&lt;br&gt;&lt;/div&gt;&lt;div&gt;Accessible at :&lt;/div&gt;&lt;div&gt;&lt;b&gt;5.135.156.86::9092&lt;/b&gt;&lt;br&gt;&lt;/div&gt;" style="rounded=0;whiteSpace=wrap;html=1;" vertex="1" parent="QtWfS4Ex85n4ASmZowjN-8">
          <mxGeometry x="30" y="88.53287671232877" width="162.5" height="62.93483365949119" as="geometry" />
        </mxCell>
        <mxCell id="QtWfS4Ex85n4ASmZowjN-6" value="&lt;div&gt;Apache Cassandra Container&lt;/div&gt;&lt;div&gt;&lt;br&gt;&lt;/div&gt;&lt;div&gt;&lt;div&gt;Accessible at :&lt;/div&gt;&lt;b&gt;5.135.156.86::9042&lt;/b&gt;&lt;/div&gt;" style="rounded=0;whiteSpace=wrap;html=1;" vertex="1" parent="QtWfS4Ex85n4ASmZowjN-8">
          <mxGeometry x="30.5" y="163.06" width="161.5" height="75.88" as="geometry" />
        </mxCell>
        <mxCell id="QtWfS4Ex85n4ASmZowjN-20" style="edgeStyle=orthogonalEdgeStyle;rounded=0;orthogonalLoop=1;jettySize=auto;html=1;exitX=0;exitY=0.5;exitDx=0;exitDy=0;entryX=1;entryY=0.5;entryDx=0;entryDy=0;" edge="1" parent="QtWfS4Ex85n4ASmZowjN-8" source="QtWfS4Ex85n4ASmZowjN-7" target="QtWfS4Ex85n4ASmZowjN-5">
          <mxGeometry relative="1" as="geometry">
            <Array as="points">
              <mxPoint x="213" y="208" />
              <mxPoint x="213" y="120" />
            </Array>
          </mxGeometry>
        </mxCell>
        <mxCell id="QtWfS4Ex85n4ASmZowjN-7" value="Web Scrapper python selenium nohup proccessus" style="rounded=0;whiteSpace=wrap;html=1;" vertex="1" parent="QtWfS4Ex85n4ASmZowjN-8">
          <mxGeometry x="230" y="170" width="160" height="75.88" as="geometry" />
        </mxCell>
        <mxCell id="QtWfS4Ex85n4ASmZowjN-22" style="edgeStyle=orthogonalEdgeStyle;rounded=0;orthogonalLoop=1;jettySize=auto;html=1;exitX=0;exitY=0.5;exitDx=0;exitDy=0;entryX=1;entryY=0.5;entryDx=0;entryDy=0;" edge="1" parent="QtWfS4Ex85n4ASmZowjN-8" source="QtWfS4Ex85n4ASmZowjN-19" target="QtWfS4Ex85n4ASmZowjN-5">
          <mxGeometry relative="1" as="geometry" />
        </mxCell>
        <mxCell id="QtWfS4Ex85n4ASmZowjN-19" value="&lt;div&gt;kafka Zookeeper Container&lt;/div&gt;&lt;div&gt;&lt;br&gt;&lt;/div&gt;&lt;div&gt;Accessible at :&lt;/div&gt;&lt;div&gt;&lt;b&gt;5.135.156.86::2181&lt;/b&gt;&lt;br&gt;&lt;/div&gt;" style="rounded=0;whiteSpace=wrap;html=1;" vertex="1" parent="QtWfS4Ex85n4ASmZowjN-8">
          <mxGeometry x="230" y="88.53287671232876" width="162.5" height="62.93483365949119" as="geometry" />
        </mxCell>
        <mxCell id="QtWfS4Ex85n4ASmZowjN-9" value="" style="group" vertex="1" connectable="0" parent="1">
          <mxGeometry x="560" y="80" width="280" height="360" as="geometry" />
        </mxCell>
        <mxCell id="QtWfS4Ex85n4ASmZowjN-10" value="&lt;div align=&quot;justify&quot;&gt;&lt;br&gt;&lt;/div&gt;" style="rounded=1;whiteSpace=wrap;html=1;" vertex="1" parent="QtWfS4Ex85n4ASmZowjN-9">
          <mxGeometry width="280" height="283.6363636363636" as="geometry" />
        </mxCell>
        <mxCell id="QtWfS4Ex85n4ASmZowjN-11" value="&lt;div&gt;&lt;b&gt;86.201.248.56&lt;/b&gt;&lt;b&gt;&lt;/b&gt;&lt;/div&gt;&amp;nbsp;&lt;b&gt;Port : 22&lt;/b&gt;" style="text;html=1;strokeColor=none;fillColor=none;align=center;verticalAlign=middle;whiteSpace=wrap;rounded=0;" vertex="1" parent="QtWfS4Ex85n4ASmZowjN-9">
          <mxGeometry x="80" y="18.947368421052634" width="90" height="28.421052631578945" as="geometry" />
        </mxCell>
        <mxCell id="QtWfS4Ex85n4ASmZowjN-12" value="" style="shape=mxgraph.cisco.servers.software_based_server;sketch=0;html=1;pointerEvents=1;dashed=0;fillColor=#036897;strokeColor=#ffffff;strokeWidth=2;verticalLabelPosition=bottom;verticalAlign=top;align=center;outlineConnect=0;" vertex="1" parent="QtWfS4Ex85n4ASmZowjN-9">
          <mxGeometry x="30" y="14.210526315789473" width="34.81" height="37.89473684210527" as="geometry" />
        </mxCell>
        <mxCell id="QtWfS4Ex85n4ASmZowjN-13" value="&lt;div&gt; Spark &lt;b&gt;Master&lt;/b&gt; Container&lt;/div&gt;&lt;div&gt;&lt;br&gt;&lt;/div&gt;&lt;div&gt;Spark Master URL : &lt;b&gt;spark://86.201.248.56::7707&lt;/b&gt;&lt;/div&gt;&lt;div&gt;Spark Master UI :&lt;/div&gt;&lt;div&gt;&lt;b&gt;http://86.201.248.56::8080&lt;/b&gt;&lt;br&gt;&lt;/div&gt;" style="rounded=0;whiteSpace=wrap;html=1;" vertex="1" parent="QtWfS4Ex85n4ASmZowjN-9">
          <mxGeometry x="60" y="66.31578947368422" width="160" height="94.73684210526316" as="geometry" />
        </mxCell>
        <mxCell id="QtWfS4Ex85n4ASmZowjN-16" value="&lt;div&gt;Submitted Spark application to cluster&lt;b&gt;&lt;br&gt;&lt;/b&gt;&lt;/div&gt;&lt;div&gt;&lt;b&gt;&lt;br&gt;&lt;/b&gt;&lt;/div&gt;&lt;div&gt;&lt;b&gt;bitcoin_price_storage&lt;br&gt;&lt;/b&gt;&lt;/div&gt;&lt;div&gt;&lt;b&gt;bitcoin_rate_stats&lt;/b&gt;&lt;/div&gt;" style="rounded=0;whiteSpace=wrap;html=1;" vertex="1" parent="QtWfS4Ex85n4ASmZowjN-9">
          <mxGeometry x="60" y="175.26315789473682" width="160" height="81.47368421052633" as="geometry" />
        </mxCell>
        <mxCell id="QtWfS4Ex85n4ASmZowjN-21" style="edgeStyle=orthogonalEdgeStyle;rounded=0;orthogonalLoop=1;jettySize=auto;html=1;exitX=0;exitY=0.5;exitDx=0;exitDy=0;entryX=0.75;entryY=0;entryDx=0;entryDy=0;" edge="1" parent="1" source="QtWfS4Ex85n4ASmZowjN-16" target="QtWfS4Ex85n4ASmZowjN-5">
          <mxGeometry relative="1" as="geometry">
            <Array as="points">
              <mxPoint x="510" y="296" />
              <mxPoint x="510" y="149" />
              <mxPoint x="222" y="149" />
            </Array>
          </mxGeometry>
        </mxCell>
        <mxCell id="QtWfS4Ex85n4ASmZowjN-24" value="" style="group" vertex="1" connectable="0" parent="1">
          <mxGeometry x="100" y="377" width="280" height="360" as="geometry" />
        </mxCell>
        <mxCell id="QtWfS4Ex85n4ASmZowjN-25" value="&lt;div align=&quot;justify&quot;&gt;&lt;br&gt;&lt;/div&gt;" style="rounded=1;whiteSpace=wrap;html=1;" vertex="1" parent="QtWfS4Ex85n4ASmZowjN-24">
          <mxGeometry width="280" height="283.6363636363636" as="geometry" />
        </mxCell>
        <mxCell id="QtWfS4Ex85n4ASmZowjN-26" value="&lt;div&gt;&lt;b&gt;86.201.248.56&lt;/b&gt;&lt;b&gt;&lt;/b&gt;&lt;/div&gt;&amp;nbsp;&lt;b&gt;Port : &lt;/b&gt;&lt;b&gt;&lt;/b&gt;&lt;b&gt;5022&lt;/b&gt;" style="text;html=1;strokeColor=none;fillColor=none;align=center;verticalAlign=middle;whiteSpace=wrap;rounded=0;" vertex="1" parent="QtWfS4Ex85n4ASmZowjN-24">
          <mxGeometry x="80" y="18.947368421052634" width="90" height="28.421052631578945" as="geometry" />
        </mxCell>
        <mxCell id="QtWfS4Ex85n4ASmZowjN-27" value="" style="shape=mxgraph.cisco.servers.software_based_server;sketch=0;html=1;pointerEvents=1;dashed=0;fillColor=#036897;strokeColor=#ffffff;strokeWidth=2;verticalLabelPosition=bottom;verticalAlign=top;align=center;outlineConnect=0;" vertex="1" parent="QtWfS4Ex85n4ASmZowjN-24">
          <mxGeometry x="30" y="14.210526315789473" width="34.81" height="37.89473684210527" as="geometry" />
        </mxCell>
        <mxCell id="QtWfS4Ex85n4ASmZowjN-28" value="&lt;div&gt; Spark &lt;b&gt;Worker&lt;/b&gt; Container&lt;/div&gt;&lt;div&gt;&lt;br&gt;&lt;/div&gt;&lt;div&gt;Registered Spark Master URL : &lt;b&gt;spark://&lt;/b&gt;&lt;b&gt;86.201.248.56::7707&lt;/b&gt;&lt;/div&gt;" style="rounded=0;whiteSpace=wrap;html=1;" vertex="1" parent="QtWfS4Ex85n4ASmZowjN-24">
          <mxGeometry x="45" y="66.32" width="190" height="94.74" as="geometry" />
        </mxCell>
        <mxCell id="QtWfS4Ex85n4ASmZowjN-29" value="&lt;div&gt;&amp;nbsp;Running spark application&lt;b&gt; &lt;/b&gt;on&amp;nbsp;&lt;/div&gt;&lt;div&gt;worker&lt;b&gt;&lt;br&gt;&lt;/b&gt;&lt;/div&gt;&lt;div&gt;&lt;b&gt;&lt;br&gt;&lt;/b&gt;&lt;/div&gt;&lt;div&gt;&lt;b&gt;bitcoin_price_storage&lt;br&gt;&lt;/b&gt;&lt;/div&gt;&lt;div&gt;&lt;b&gt;bitcoin_rate_stats&lt;/b&gt;&lt;/div&gt;" style="rounded=0;whiteSpace=wrap;html=1;" vertex="1" parent="QtWfS4Ex85n4ASmZowjN-24">
          <mxGeometry x="40" y="175.26" width="200" height="81.47" as="geometry" />
        </mxCell>
        <mxCell id="QtWfS4Ex85n4ASmZowjN-30" style="edgeStyle=orthogonalEdgeStyle;rounded=0;orthogonalLoop=1;jettySize=auto;html=1;exitX=1;exitY=0.5;exitDx=0;exitDy=0;entryX=0;entryY=0.5;entryDx=0;entryDy=0;" edge="1" parent="1" source="QtWfS4Ex85n4ASmZowjN-28" target="QtWfS4Ex85n4ASmZowjN-13">
          <mxGeometry relative="1" as="geometry">
            <Array as="points">
              <mxPoint x="510" y="491" />
              <mxPoint x="510" y="194" />
            </Array>
          </mxGeometry>
        </mxCell>
        <mxCell id="QtWfS4Ex85n4ASmZowjN-31" value="" style="group" vertex="1" connectable="0" parent="1">
          <mxGeometry x="562" y="379" width="280" height="360" as="geometry" />
        </mxCell>
        <mxCell id="QtWfS4Ex85n4ASmZowjN-32" value="&lt;div align=&quot;justify&quot;&gt;&lt;br&gt;&lt;/div&gt;" style="rounded=1;whiteSpace=wrap;html=1;" vertex="1" parent="QtWfS4Ex85n4ASmZowjN-31">
          <mxGeometry width="280" height="283.6363636363636" as="geometry" />
        </mxCell>
        <mxCell id="QtWfS4Ex85n4ASmZowjN-33" value="&lt;div&gt;&lt;b&gt;86.201.248.56&lt;/b&gt;&lt;b&gt;&lt;/b&gt;&lt;/div&gt;&amp;nbsp;&lt;b&gt;Port : &lt;/b&gt;&lt;b&gt;&lt;/b&gt;&lt;b&gt;5024&lt;/b&gt;" style="text;html=1;strokeColor=none;fillColor=none;align=center;verticalAlign=middle;whiteSpace=wrap;rounded=0;" vertex="1" parent="QtWfS4Ex85n4ASmZowjN-31">
          <mxGeometry x="80" y="18.947368421052634" width="90" height="28.421052631578945" as="geometry" />
        </mxCell>
        <mxCell id="QtWfS4Ex85n4ASmZowjN-34" value="" style="shape=mxgraph.cisco.servers.software_based_server;sketch=0;html=1;pointerEvents=1;dashed=0;fillColor=#036897;strokeColor=#ffffff;strokeWidth=2;verticalLabelPosition=bottom;verticalAlign=top;align=center;outlineConnect=0;" vertex="1" parent="QtWfS4Ex85n4ASmZowjN-31">
          <mxGeometry x="30" y="14.210526315789473" width="34.81" height="37.89473684210527" as="geometry" />
        </mxCell>
        <mxCell id="QtWfS4Ex85n4ASmZowjN-35" value="&lt;div&gt; Spark &lt;b&gt;Worker&lt;/b&gt; Container&lt;/div&gt;&lt;div&gt;&lt;br&gt;&lt;/div&gt;&lt;div&gt;Registered Spark Master URL : &lt;b&gt;spark://&lt;/b&gt;&lt;b&gt;86.201.248.56::7707&lt;/b&gt;&lt;/div&gt;" style="rounded=0;whiteSpace=wrap;html=1;" vertex="1" parent="QtWfS4Ex85n4ASmZowjN-31">
          <mxGeometry x="45" y="66.32" width="190" height="94.74" as="geometry" />
        </mxCell>
        <mxCell id="QtWfS4Ex85n4ASmZowjN-36" value="&lt;div&gt;&amp;nbsp;Running spark application&lt;b&gt; &lt;/b&gt;on&amp;nbsp;&lt;/div&gt;&lt;div&gt;worker&lt;b&gt;&lt;br&gt;&lt;/b&gt;&lt;/div&gt;&lt;div&gt;&lt;b&gt;&lt;br&gt;&lt;/b&gt;&lt;/div&gt;&lt;div&gt;&lt;b&gt;bitcoin_price_storage&lt;br&gt;&lt;/b&gt;&lt;/div&gt;&lt;div&gt;&lt;b&gt;bitcoin_rate_stats&lt;/b&gt;&lt;/div&gt;" style="rounded=0;whiteSpace=wrap;html=1;" vertex="1" parent="QtWfS4Ex85n4ASmZowjN-31">
          <mxGeometry x="40" y="175.26" width="200" height="81.47" as="geometry" />
        </mxCell>
        <mxCell id="QtWfS4Ex85n4ASmZowjN-38" style="edgeStyle=orthogonalEdgeStyle;rounded=0;orthogonalLoop=1;jettySize=auto;html=1;exitX=1;exitY=0.5;exitDx=0;exitDy=0;entryX=1;entryY=0.5;entryDx=0;entryDy=0;" edge="1" parent="1" source="QtWfS4Ex85n4ASmZowjN-35" target="QtWfS4Ex85n4ASmZowjN-13">
          <mxGeometry relative="1" as="geometry">
            <Array as="points">
              <mxPoint x="880" y="493" />
              <mxPoint x="880" y="194" />
            </Array>
          </mxGeometry>
        </mxCell>
        <mxCell id="QtWfS4Ex85n4ASmZowjN-39" style="edgeStyle=orthogonalEdgeStyle;rounded=0;orthogonalLoop=1;jettySize=auto;html=1;exitX=0;exitY=0.5;exitDx=0;exitDy=0;entryX=1;entryY=0.5;entryDx=0;entryDy=0;" edge="1" parent="1" source="QtWfS4Ex85n4ASmZowjN-13" target="QtWfS4Ex85n4ASmZowjN-28">
          <mxGeometry relative="1" as="geometry">
            <Array as="points">
              <mxPoint x="510" y="194" />
              <mxPoint x="510" y="491" />
            </Array>
          </mxGeometry>
        </mxCell>
        <mxCell id="QtWfS4Ex85n4ASmZowjN-40" style="edgeStyle=orthogonalEdgeStyle;rounded=0;orthogonalLoop=1;jettySize=auto;html=1;exitX=1;exitY=0.5;exitDx=0;exitDy=0;entryX=1;entryY=0.5;entryDx=0;entryDy=0;" edge="1" parent="1" source="QtWfS4Ex85n4ASmZowjN-13" target="QtWfS4Ex85n4ASmZowjN-35">
          <mxGeometry relative="1" as="geometry">
            <Array as="points">
              <mxPoint x="880" y="194" />
              <mxPoint x="880" y="493" />
            </Array>
          </mxGeometry>
        </mxCell>
        <mxCell id="QtWfS4Ex85n4ASmZowjN-42" style="edgeStyle=orthogonalEdgeStyle;rounded=0;orthogonalLoop=1;jettySize=auto;html=1;exitX=0;exitY=0.5;exitDx=0;exitDy=0;entryX=0;entryY=0.5;entryDx=0;entryDy=0;" edge="1" parent="1" source="QtWfS4Ex85n4ASmZowjN-29" target="QtWfS4Ex85n4ASmZowjN-6">
          <mxGeometry relative="1" as="geometry">
            <Array as="points">
              <mxPoint x="50" y="593" />
              <mxPoint x="50" y="281" />
            </Array>
          </mxGeometry>
        </mxCell>
        <mxCell id="QtWfS4Ex85n4ASmZowjN-43" style="edgeStyle=orthogonalEdgeStyle;rounded=0;orthogonalLoop=1;jettySize=auto;html=1;exitX=0;exitY=0.5;exitDx=0;exitDy=0;entryX=0.25;entryY=1;entryDx=0;entryDy=0;" edge="1" parent="1" source="QtWfS4Ex85n4ASmZowjN-36" target="QtWfS4Ex85n4ASmZowjN-6">
          <mxGeometry relative="1" as="geometry">
            <Array as="points">
              <mxPoint x="450" y="595" />
              <mxPoint x="450" y="370" />
              <mxPoint x="141" y="370" />
            </Array>
          </mxGeometry>
        </mxCell>
      </root>
    </mxGraphModel>
  </diagram>
</mxfile>
